<svg width="221" height="76" viewBox="0 0 221 76" fill="none" xmlns="http://www.w3.org/2000/svg">
<path d="M6.9428 21.6459C3.10857 17.8116 3.10857 11.5951 6.94281 7.76087V7.76087C10.777 3.92663 16.9936 3.92663 20.8278 7.76086L49.0549 35.9879L35.1699 49.8729L6.9428 21.6459Z" fill="#F77F00"/>
<path d="M20.8275 64.2031C16.9933 68.0374 10.7767 68.0374 6.94251 64.2031V64.2031C3.10827 60.3689 3.10827 54.1524 6.9425 50.3181L35.1696 22.0911L49.0546 35.9761L20.8275 64.2031Z" fill="#F77F00"/>
<path d="M49.5031 7.76013C53.3374 3.92589 59.5539 3.92589 63.3882 7.76013V7.76013C67.2224 11.5944 67.2224 17.8109 63.3882 21.6451L35.1584 49.8749L21.2734 35.9899L49.5031 7.76013Z" fill="#2A3645"/>
<path d="M63.3854 50.3174C67.2196 54.1516 67.2196 60.3682 63.3853 64.2024V64.2024C59.5511 68.0366 53.3346 68.0366 49.5003 64.2024L21.2733 35.9753L35.1583 22.0903L63.3854 50.3174Z" fill="#2A3645"/>
<path d="M76.9375 38.1016V73.375H69.0625V32.4141H76.3633L76.9375 38.1016ZM95.668 46.8789V47.4531C95.668 49.6042 95.4128 51.6003 94.9023 53.4414C94.4102 55.2826 93.681 56.8867 92.7148 58.2539C91.7487 59.6029 90.5456 60.6602 89.1055 61.4258C87.6836 62.1732 86.043 62.5469 84.1836 62.5469C82.3789 62.5469 80.8112 62.1823 79.4805 61.4531C78.1497 60.724 77.0286 59.7031 76.1172 58.3906C75.224 57.0599 74.5039 55.5195 73.957 53.7695C73.4102 52.0195 72.9909 50.1419 72.6992 48.1367V46.6328C72.9909 44.4818 73.4102 42.513 73.957 40.7266C74.5039 38.9219 75.224 37.3633 76.1172 36.0508C77.0286 34.7201 78.1406 33.6901 79.4531 32.9609C80.7839 32.2318 82.3424 31.8672 84.1289 31.8672C86.0065 31.8672 87.6562 32.2227 89.0781 32.9336C90.5182 33.6445 91.7214 34.6654 92.6875 35.9961C93.6719 37.3268 94.4102 38.9128 94.9023 40.7539C95.4128 42.5951 95.668 44.6367 95.668 46.8789ZM87.7656 47.4531V46.8789C87.7656 45.6211 87.6562 44.4635 87.4375 43.4062C87.237 42.3307 86.9089 41.3919 86.4531 40.5898C86.0156 39.7878 85.4323 39.168 84.7031 38.7305C83.9922 38.2747 83.1263 38.0469 82.1055 38.0469C81.0299 38.0469 80.1094 38.2201 79.3438 38.5664C78.5964 38.9128 77.9857 39.4141 77.5117 40.0703C77.0378 40.7266 76.6823 41.5104 76.4453 42.4219C76.2083 43.3333 76.0625 44.3633 76.0078 45.5117V49.3125C76.099 50.6615 76.3542 51.8737 76.7734 52.9492C77.1927 54.0065 77.8398 54.8451 78.7148 55.4648C79.5898 56.0846 80.7383 56.3945 82.1602 56.3945C83.1992 56.3945 84.0742 56.1667 84.7852 55.7109C85.4961 55.237 86.0703 54.5898 86.5078 53.7695C86.9635 52.9492 87.2826 52.0013 87.4648 50.9258C87.6654 49.8503 87.7656 48.6927 87.7656 47.4531ZM108.875 20V62H100.973V20H108.875ZM131.352 55.3281V42.1484C131.352 41.2005 131.197 40.3893 130.887 39.7148C130.577 39.0221 130.094 38.4844 129.438 38.1016C128.799 37.7188 127.97 37.5273 126.949 37.5273C126.074 37.5273 125.318 37.6823 124.68 37.9922C124.042 38.2839 123.549 38.7122 123.203 39.2773C122.857 39.8242 122.684 40.4714 122.684 41.2188H114.809C114.809 39.9609 115.1 38.7669 115.684 37.6367C116.267 36.5065 117.115 35.513 118.227 34.6562C119.339 33.7812 120.66 33.0977 122.191 32.6055C123.741 32.1133 125.473 31.8672 127.387 31.8672C129.684 31.8672 131.725 32.25 133.512 33.0156C135.298 33.7812 136.702 34.9297 137.723 36.4609C138.762 37.9922 139.281 39.9062 139.281 42.2031V54.8633C139.281 56.4857 139.382 57.8164 139.582 58.8555C139.783 59.8763 140.074 60.7695 140.457 61.5352V62H132.5C132.117 61.1979 131.826 60.1953 131.625 58.9922C131.443 57.7708 131.352 56.5495 131.352 55.3281ZM132.391 43.9805L132.445 48.4375H128.043C127.004 48.4375 126.102 48.556 125.336 48.793C124.57 49.0299 123.941 49.3672 123.449 49.8047C122.957 50.224 122.592 50.7161 122.355 51.2812C122.137 51.8464 122.027 52.4661 122.027 53.1406C122.027 53.8151 122.182 54.4258 122.492 54.9727C122.802 55.5013 123.249 55.9206 123.832 56.2305C124.415 56.5221 125.099 56.668 125.883 56.668C127.068 56.668 128.098 56.431 128.973 55.957C129.848 55.4831 130.522 54.8997 130.996 54.207C131.488 53.5143 131.743 52.8581 131.762 52.2383L133.84 55.5742C133.548 56.3216 133.147 57.0964 132.637 57.8984C132.145 58.7005 131.516 59.457 130.75 60.168C129.984 60.8607 129.064 61.4349 127.988 61.8906C126.913 62.3281 125.637 62.5469 124.16 62.5469C122.283 62.5469 120.578 62.1732 119.047 61.4258C117.534 60.6602 116.331 59.612 115.438 58.2812C114.562 56.9323 114.125 55.401 114.125 53.6875C114.125 52.138 114.417 50.7617 115 49.5586C115.583 48.3555 116.44 47.3438 117.57 46.5234C118.719 45.6849 120.15 45.056 121.863 44.6367C123.577 44.1992 125.564 43.9805 127.824 43.9805H132.391ZM153.691 58.6641L161.539 32.4141H169.988L158.094 66.457C157.839 67.2044 157.492 68.0065 157.055 68.8633C156.635 69.7201 156.061 70.5312 155.332 71.2969C154.621 72.0807 153.719 72.7188 152.625 73.2109C151.549 73.7031 150.228 73.9492 148.66 73.9492C147.913 73.9492 147.302 73.9036 146.828 73.8125C146.354 73.7214 145.789 73.5938 145.133 73.4297V67.6602C145.333 67.6602 145.543 67.6602 145.762 67.6602C145.98 67.6784 146.19 67.6875 146.391 67.6875C147.43 67.6875 148.277 67.569 148.934 67.332C149.59 67.0951 150.118 66.7305 150.52 66.2383C150.921 65.7643 151.24 65.1445 151.477 64.3789L153.691 58.6641ZM150.41 32.4141L156.836 53.8516L157.957 62.1914L152.598 62.7656L141.961 32.4141H150.41ZM186.367 62.5469C184.07 62.5469 182.01 62.1823 180.188 61.4531C178.365 60.7057 176.815 59.6758 175.539 58.3633C174.281 57.0508 173.315 55.5286 172.641 53.7969C171.966 52.0469 171.629 50.1875 171.629 48.2188V47.125C171.629 44.8828 171.948 42.832 172.586 40.9727C173.224 39.1133 174.135 37.5 175.32 36.1328C176.523 34.7656 177.982 33.7174 179.695 32.9883C181.409 32.2409 183.341 31.8672 185.492 31.8672C187.589 31.8672 189.448 32.2135 191.07 32.9062C192.693 33.599 194.051 34.5833 195.145 35.8594C196.257 37.1354 197.095 38.6667 197.66 40.4531C198.225 42.2214 198.508 44.1901 198.508 46.3594V49.6406H174.992V44.3906H190.77V43.7891C190.77 42.6953 190.569 41.7201 190.168 40.8633C189.785 39.9883 189.202 39.2956 188.418 38.7852C187.634 38.2747 186.632 38.0195 185.41 38.0195C184.371 38.0195 183.478 38.2474 182.73 38.7031C181.983 39.1589 181.372 39.7969 180.898 40.6172C180.443 41.4375 180.096 42.4036 179.859 43.5156C179.641 44.6094 179.531 45.8125 179.531 47.125V48.2188C179.531 49.4036 179.695 50.4974 180.023 51.5C180.37 52.5026 180.853 53.3685 181.473 54.0977C182.111 54.8268 182.876 55.3919 183.77 55.793C184.681 56.194 185.711 56.3945 186.859 56.3945C188.281 56.3945 189.603 56.1211 190.824 55.5742C192.064 55.0091 193.13 54.1615 194.023 53.0312L197.852 57.1875C197.232 58.0807 196.384 58.9375 195.309 59.7578C194.251 60.5781 192.975 61.2526 191.48 61.7812C189.986 62.2917 188.281 62.5469 186.367 62.5469ZM210.867 38.8672V62H202.992V32.4141H210.402L210.867 38.8672ZM219.781 32.2227L219.645 39.5234C219.262 39.4688 218.797 39.4232 218.25 39.3867C217.721 39.332 217.238 39.3047 216.801 39.3047C215.689 39.3047 214.723 39.4505 213.902 39.7422C213.1 40.0156 212.426 40.4258 211.879 40.9727C211.35 41.5195 210.949 42.1849 210.676 42.9688C210.421 43.7526 210.275 44.6458 210.238 45.6484L208.652 45.1562C208.652 43.2422 208.844 41.4831 209.227 39.8789C209.609 38.2565 210.165 36.8438 210.895 35.6406C211.642 34.4375 212.553 33.5078 213.629 32.8516C214.704 32.1953 215.935 31.8672 217.32 31.8672C217.758 31.8672 218.204 31.9036 218.66 31.9766C219.116 32.0312 219.49 32.1133 219.781 32.2227Z" fill="#6AC08F"/>
</svg>
